HIERARCHY
ROOT Hips
{
	OFFSET 0.00000 0.00000 0.00000
	CHANNELS 6 Xposition Yposition Zposition Zrotation Yrotation Xrotation 
	JOINT LHipJoint
	{
		OFFSET 0 0 0
		CHANNELS 3 Zrotation Yrotation Xrotation
		JOINT LeftHip
		{
			OFFSET 1.46561 -1.72757 0.83774
			CHANNELS 3 Zrotation Yrotation Xrotation
			JOINT LeftKnee
			{
				OFFSET 2.48915 -6.83890 0.00000
				CHANNELS 3 Zrotation Yrotation Xrotation
				JOINT LeftAnkle
				{
					OFFSET 2.60555 -7.15868 0.00000
					CHANNELS 3 Zrotation Yrotation Xrotation
					JOINT LeftToe
					{
						OFFSET 0.19248 -0.52884 2.26738
						CHANNELS 3 Zrotation Yrotation Xrotation
						End Site
						{
							OFFSET 0.00000 -0.00000 1.17015
						}
					}
				}
			}
		}
	}
	JOINT RHipJoint
	{
		OFFSET 0 0 0
		CHANNELS 3 Zrotation Yrotation Xrotation
		JOINT RightHip
		{
			OFFSET -1.46918 -1.72757 0.83774
			CHANNELS 3 Zrotation Yrotation Xrotation
			JOINT RightKnee
			{
				OFFSET -2.49034 -6.84216 0.00000
				CHANNELS 3 Zrotation Yrotation Xrotation
				JOINT RightAnkle
				{
					OFFSET -2.65971 -7.30750 0.00000
					CHANNELS 3 Zrotation Yrotation Xrotation
					JOINT RightToe
					{
						OFFSET -0.19227 -0.52827 2.30785
						CHANNELS 3 Zrotation Yrotation Xrotation
						End Site
						{
							OFFSET -0.00000 -0.00000 1.18972
						}
					}
				}
			}
		}
	}
	JOINT lowerback
	{
		OFFSET 0 0 0
		CHANNELS 3 Zrotation Yrotation Xrotation
		JOINT Chest
		{
			OFFSET 0.02432 2.19909 -0.28000
			CHANNELS 3 Zrotation Yrotation Xrotation
			JOINT Chest2
			{
				OFFSET 0.03714 2.21816 -0.15261
				CHANNELS 3 Zrotation Yrotation Xrotation
				JOINT lowerneck
				{
					OFFSET 0 0 0
					CHANNELS 3 Zrotation Yrotation Xrotation
					JOINT Neck
					{
						OFFSET -0.01896 1.56165 0.21681
						CHANNELS 3 Zrotation Yrotation Xrotation
						JOINT Head
						{
							OFFSET 0.02744 1.56009 0.06764
							CHANNELS 3 Zrotation Yrotation Xrotation
							End Site
							{
								OFFSET 0.01212 1.60574 0.00298
							}
						}
					}
				}
				JOINT LeftCollar
				{
					OFFSET 0 0 0
					CHANNELS 3 Zrotation Yrotation Xrotation
					JOINT LeftShoulder
					{
						OFFSET 3.05595 1.48048 -0.60794
CHANNELS 3 Zrotation Xrotation Yrotation
						JOINT LeftElbow
						{
OFFSET 0 -5.206070 -0.000000
CHANNELS 3 Zrotation Xrotation Yrotation
							JOINT LeftWrist
							{
OFFSET 0 -3.399610 0.000000
CHANNELS 3 Zrotation Xrotation Yrotation
								JOINT lhand
								{
									OFFSET 0 0 0
CHANNELS 3 Zrotation Xrotation Yrotation
									JOINT LFingers
									{
OFFSET 0 -0.519690 0.000000
CHANNELS 3 Zrotation Xrotation Yrotation
										End Site
										{
OFFSET 0 -0.418990 0.000000
										}
									}
								}
								JOINT LThumb
								{
OFFSET 0 0.000000 0.000000
CHANNELS 3 Zrotation Xrotation Yrotation
									End Site
									{
OFFSET 0 -0.425390 0.425390
									}
								}
							}
						}
					}
				}
				JOINT RightCollar
				{
					OFFSET 0 0 0
					CHANNELS 3 Zrotation Yrotation Xrotation
					JOINT RightShoulder
					{
						OFFSET -2.99052 1.57608 -0.69102
CHANNELS 3 Zrotation Xrotation Yrotation
						JOINT RightElbow
						{
OFFSET 0 -5.322140 0.000000
CHANNELS 3 Zrotation Xrotation Yrotation
							JOINT RightWrist
							{
OFFSET 0 -3.512080 0.000000
CHANNELS 3 Zrotation Xrotation Yrotation
								JOINT rhand
								{
									OFFSET 0 0 0
CHANNELS 3 Zrotation Xrotation Yrotation
									JOINT RFingers
									{
OFFSET 0 -0.586680 0.000000
CHANNELS 3 Zrotation Xrotation Yrotation
										End Site
										{
OFFSET 0 -0.473000 0.000000
										}
									}
								}
								JOINT RThumb
								{
OFFSET 0 0.000000 0.000000
CHANNELS 3 Zrotation Xrotation Yrotation
									End Site
									{
OFFSET 0 -0.480220 0.480220
									}
								}
							}
						}
					}
				}
			}
		}
	}
}
MOTION
Frames: 8
Frame Time: .0083333
0.6234 21.7576 -7.1697 -0.7906 0.0828 9.9894 0.0000 0.0000 0.0000 -16.5641 -2.4265 -33.7053 1.4281 7.5564 21.3747 1.0482 6.2228 18.2752 0.0005 0.1509 0.4147 0.0000 0.0000 0.0000 16.1780 6.5107 -32.4499 -3.0229 -10.7320 31.3814 -0.3988 -8.9791 12.0405 -0.5649 -4.8139 13.3787 -1.8556 -1.3370 7.6418 2.2529 -1.8761 4.1025 3.5050 -0.9913 0.0950 -1.2697 0.8260 -10.2926 -0.8165 1.6551 28.8307 0.1244 0.5060 10.9836 0.0000 -0.0000 0.0000 1.1545 -16.0088 -32.7092 9.7174 -16.2963 1.3946 25.7894 -16.5234 6.5158 0.0 0.0 0.0 -7.1250 0.0 0.0 -0.7067 22.7507 -0.3785 0.0000 -0.0000 0.0000 -2.4266 -9.0179 14.9119 -13.0037 -21.2926 -2.4546 -20.731 42.5037 24.4722 0.0 0.0 0.0 7.1250 0.0 -0.0 9.4260 55.6814 -2.4867
0.6287 21.6713 -7.0296 -0.7675 -0.1036 9.8761 0.0000 0.0000 0.0000 -16.6128 -2.3610 -33.6423 1.3010 7.2262 20.3871 1.0632 6.3139 18.4064 0.0002 -0.0823 -0.2260 0.0000 0.0000 0.0000 16.1203 6.5918 -32.5367 -2.7866 -10.3414 30.0894 -0.4264 -8.8073 12.3126 -0.5019 -4.5415 12.6054 -1.8544 -1.3049 7.5753 2.2139 -1.8340 4.1485 3.4582 -0.9717 0.1747 -1.2174 0.8367 -10.1928 -0.8497 1.6671 28.9478 0.1044 0.5119 11.0090 0.0000 0.0000 0.0000 1.0548 -15.8379 -32.1224 9.4751 -15.9144 1.3274 25.6356 -15.8516 6.3811 0.0 0.0 0.0 -7.1250 0.0 0.0 -0.8153 22.9088 -0.4337 0.0000 0.0000 0.0000 -2.3109 -8.7858 14.5227 -12.7858 -20.9725 -2.3761 -20.6874 42.7637 24.4769 0.0 0.0 0.0 7.1250 0.0 -0.0 9.4736 55.6772 -2.4984
0.6353 21.5717 -6.8825 -0.7387 -0.2846 9.7234 0.0000 0.0000 0.0000 -16.6800 -2.2562 -33.4554 1.1868 6.9134 19.4591 1.0904 6.4437 18.6431 0.0019 -0.2820 -0.7748 0.0000 0.0000 0.0000 16.0590 6.6362 -32.5011 -2.5553 -9.9378 28.7755 -0.4625 -8.6286 12.6801 -0.4432 -4.2716 11.8421 -1.8334 -1.2871 7.4272 2.1707 -1.8089 4.2009 3.3944 -0.9610 0.3065 -1.1912 0.8500 -10.0543 -0.8775 1.6867 29.1004 0.0915 0.5188 11.0400 -0.0000 -0.0000 0.0000 0.9665 -15.673 -31.4666 9.2196 -15.5097 1.2582 25.459 -15.1714 6.3146 0.0 0.0 0.0 -7.1250 0.0 0.0 -0.9432 22.9927 -0.4999 -0.0000 -0.0000 0.0000 -2.2074 -8.5646 14.1762 -12.5526 -20.6282 -2.2933 -20.6741 43.0909 24.4679 0.0 0.0 0.0 7.1250 0.0 -0.0 9.4836 55.6653 -2.4983
0.6429 21.4590 -6.7285 -0.7099 -0.4523 9.5291 0.0000 0.0000 0.0000 -16.7633 -2.1096 -33.1464 1.0864 6.6245 18.6077 1.1268 6.5716 18.9547 0.0047 -0.4440 -1.2201 0.0000 0.0000 0.0000 15.9920 6.6640 -32.3368 -2.3343 -9.5302 27.4684 -0.5054 -8.4442 13.1198 -0.3949 -4.0351 11.1755 -1.7897 -1.2858 7.2042 2.1283 -1.8039 4.2552 3.3181 -0.9605 0.4824 -1.2028 0.8664 -9.8740 -0.8947 1.7156 29.2889 0.0899 0.5268 11.0760 -0.0000 -0.0000 0.0000 0.8833 -15.5105 -30.7241 8.9496 -15.0801 1.187 25.2589 -14.4539 6.2886 0.0 0.0 0.0 -7.1250 0.0 0.0 -1.0899 23.0328 -0.5767 -0.0000 -0.0000 0.0000 -2.1241 -8.3502 13.885 -12.3077 -20.2645 -2.2077 -20.6811 43.5047 24.4631 0.0 0.0 0.0 7.1250 0.0 -0.0 9.4741 55.6618 -2.495
0.6512 21.3330 -6.5679 -0.6818 -0.6114 9.2863 0.0000 0.0000 0.0000 -16.8648 -1.9129 -32.7126 1.0005 6.3651 17.8476 1.1713 6.6885 19.3307 0.0078 -0.5696 -1.5653 0.0000 0.0000 0.0000 15.9140 6.7002 -32.0385 -2.1295 -9.1308 26.2052 -0.5523 -8.2731 13.5999 -0.3610 -3.8597 10.6824 -1.7279 -1.2982 6.9208 2.0887 -1.8158 4.3081 3.2338 -0.9685 0.6910 -1.2340 0.8874 -9.6923 -0.9167 1.7575 29.5450 0.0916 0.5371 11.1379 0.0000 -0.0000 0.0000 0.8046 -15.3462 -29.8838 8.6666 -14.6275 1.1144 25.0126 -13.6423 6.232 0.0 0.0 0.0 -7.1250 0.0 0.0 -1.2699 23.1091 -0.6697 0.0000 -0.0000 0.0000 -2.0649 -8.1304 13.6567 -12.0598 -19.8943 -2.1226 -20.6977 43.9933 24.4605 0.0 0.0 0.0 7.1250 0.0 -0.0 9.4556 55.6627 -2.4903
0.6596 21.1937 -6.4014 -0.6663 -0.7648 8.9944 0.0000 0.0000 0.0000 -16.9685 -1.6645 -32.1655 0.9298 6.1428 17.1992 1.2252 6.8226 19.7763 0.0096 -0.6319 -1.7365 0.0000 0.0000 0.0000 15.8367 6.7694 -31.6134 -1.9463 -8.7534 25.0269 -0.5989 -8.1604 14.0792 -0.3434 -3.7655 10.4177 -1.6448 -1.3192 6.5935 2.0560 -1.8380 4.3557 3.1441 -0.9813 0.9187 -1.2902 0.9104 -9.5020 -0.9328 1.8064 29.8504 0.1006 0.5478 11.2172 -0.0000 -0.0000 0.0000 0.7328 -15.1864 -28.9361 8.3725 -14.1548 1.0413 24.7296 -12.7132 6.1456 0.0 0.0 0.0 -7.1250 0.0 0.0 -1.4766 23.2197 -0.7751 -0.0000 -0.0000 0.0000 -2.0314 -7.8974 13.4874 -11.8156 -19.5275 -2.0402 -20.7174 44.5355 24.4716 0.0 0.0 0.0 7.1250 0.0 -0.0 9.4400 55.678 -2.4896
0.6677 21.0412 -6.2295 -0.6521 -0.9096 8.6467 0.0000 0.0000 0.0000 -17.0885 -1.3619 -31.5091 0.8750 5.9637 16.6792 1.2921 6.9910 20.3173 0.0092 -0.6209 -1.7061 0.0000 0.0000 0.0000 15.7569 6.8518 -31.0750 -1.7895 -8.4132 23.9763 -0.6409 -8.1486 14.5168 -0.3439 -3.7683 10.4256 -1.5512 -1.3457 6.2365 2.0255 -1.8674 4.3970 3.0503 -0.9972 1.1567 -1.3614 0.9322 -9.3203 -0.9431 1.8563 30.2030 0.1145 0.5570 11.3169 -0.0000 0.0000 0.0000 0.6708 -15.0221 -27.8807 8.0784 -13.6799 0.9706 24.4128 -11.6488 6.0247 0.0 0.0 0.0 -7.1250 0.0 0.0 -1.7078 23.3691 -0.8907 -0.0000 0.0000 0.0000 -2.0143 -7.6523 13.3367 -11.5772 -19.1676 -1.9613 -20.7318 45.1178 24.5014 0.0 0.0 0.0 7.1250 0.0 -0.0 9.4380 55.7112 -2.4967
0.6750 20.8749 -6.0534 -0.6468 -1.0479 8.2423 0.0000 0.0000 0.0000 -17.2033 -1.0216 -30.7520 0.8366 5.8347 16.3055 1.3742 7.2260 20.9623 0.0067 -0.5278 -1.4502 0.0000 0.0000 0.0000 15.6962 6.9359 -30.4469 -1.6624 -8.1243 23.0922 -0.6760 -8.2701 14.8965 -0.3592 -3.8504 10.6563 -1.4431 -1.3713 5.8652 1.9958 -1.8957 4.4307 2.9487 -1.0118 1.3943 -1.4408 0.9513 -9.1448 -0.9378 1.8999 30.5842 0.1349 0.5637 11.4297 -0.0000 0.0000 0.0000 0.6294 -14.8525 -26.7387 7.7939 -13.2182 0.9044 24.0603 -10.4419 5.8506 0.0 0.0 0.0 -7.1250 0.0 0.0 -1.9654 23.5777 -1.0157 -0.0000 0.0000 0.0000 -2.0047 -7.3911 13.1868 -11.3531 -18.8274 -1.8883 -20.7375 45.6805 24.5379 0.0 0.0 0.0 7.1250 0.0 -0.0 9.4479 55.7496 -2.5082
